<svg width="32" height="32" viewBox="0 0 32 32" fill="none" xmlns="http://www.w3.org/2000/svg">
<g id="Graph">
<g id="Iconly/Light-Outline/Graph">
<g id="Graph_2">
<path id="Combined-Shape" fill-rule="evenodd" clip-rule="evenodd" d="M13.5297 6.93802C14.107 7.39136 14.439 8.06736 14.439 8.79269C14.439 14.6394 14.6363 16.2127 15.443 16.8114C15.9723 17.202 16.6977 17.198 19.1417 17.13C20.2777 17.0967 21.7323 17.054 23.6377 17.054C24.3977 17.054 25.1137 17.3794 25.599 17.946C26.0497 18.4727 26.247 19.1607 26.143 19.838C25.2523 25.6047 20.3457 29.7927 14.4763 29.7927C7.96433 29.7927 2.66699 24.4954 2.66699 17.9847C2.66699 12.822 6.57099 7.65936 11.3697 6.47802C12.119 6.29536 12.9243 6.46602 13.5297 6.93802ZM11.9763 8.40469C11.9337 8.40469 11.891 8.41002 11.8483 8.42069C7.88833 9.39536 4.66699 13.686 4.66699 17.9847C4.66699 23.3927 9.06699 27.7927 14.4763 27.7927C19.3523 27.7927 23.427 24.3194 24.1657 19.5327C24.171 19.4927 24.1897 19.3767 24.0803 19.2474C23.9763 19.126 23.811 19.054 23.6377 19.054C21.7563 19.054 20.3203 19.0967 19.199 19.1287C16.4843 19.21 15.3617 19.2407 14.2523 18.418C12.6661 17.2429 12.4575 15.2673 12.4403 9.72341L12.439 8.79269C12.439 8.68069 12.391 8.58736 12.295 8.51269C12.2057 8.44202 12.0923 8.40469 11.9763 8.40469ZM26.7342 4.97842C29.0782 7.32109 30.5662 10.3998 30.5235 12.8224C30.5075 13.7678 29.8209 14.5571 28.8929 14.6971C27.0822 14.9704 24.9622 15.0531 23.0862 15.0531C21.3395 15.0531 19.8022 14.9824 18.9182 14.9318C17.8062 14.8664 16.9209 13.9798 16.8569 12.8678C16.7529 11.1051 16.5275 6.62642 16.6875 3.16242C16.7315 2.15576 17.5449 1.35442 18.5395 1.33709C21.3889 1.25442 24.3289 2.57709 26.7342 4.97842ZM18.7102 3.33576H18.6809C18.5342 6.69442 18.7515 11.0331 18.8529 12.7518C18.8582 12.8544 18.9329 12.9291 19.0342 12.9344C20.4049 13.0131 25.1275 13.2318 28.5236 12.7318C28.5315 10.8598 27.2502 8.32109 25.3209 6.39309C23.3422 4.41709 21.0009 3.33576 18.7102 3.33576Z" fill="white"/>
</g>
</g>
</g>
</svg>
