<svg width="16" height="17" viewBox="0 0 16 17" fill="none" xmlns="http://www.w3.org/2000/svg">
<g id="Icon - Star">
<path id="Vector" d="M11.9456 9.69323C11.7729 9.86057 11.6936 10.1026 11.7329 10.3399L12.3256 13.6199C12.3756 13.8979 12.2583 14.1792 12.0256 14.3399C11.7976 14.5066 11.4943 14.5266 11.2456 14.3932L8.29292 12.8532C8.19026 12.7986 8.07626 12.7692 7.95959 12.7659H7.77892C7.71626 12.7752 7.65493 12.7952 7.59893 12.8259L4.64559 14.3732C4.49959 14.4466 4.33426 14.4726 4.17226 14.4466C3.77759 14.3719 3.51426 13.9959 3.57893 13.5992L4.17226 10.3192C4.21159 10.0799 4.13226 9.83657 3.95959 9.66656L1.55226 7.33323C1.35093 7.1379 1.28093 6.84457 1.37293 6.5799C1.46226 6.3159 1.69026 6.12323 1.96559 6.0799L5.27892 5.59923C5.53093 5.57323 5.75226 5.4199 5.86559 5.19323L7.32559 2.1999C7.36026 2.13323 7.40493 2.0719 7.45893 2.0199L7.51892 1.97323C7.55026 1.93857 7.58626 1.9099 7.62626 1.88657L7.69893 1.8599L7.81226 1.81323H8.09293C8.34359 1.83923 8.56426 1.98923 8.67959 2.21323L10.1589 5.19323C10.2656 5.41123 10.4729 5.56257 10.7123 5.59923L14.0256 6.0799C14.3056 6.1199 14.5396 6.31323 14.6323 6.5799C14.7196 6.84723 14.6443 7.14057 14.4389 7.33323L11.9456 9.69323Z" fill="#E8BE29"/>
</g>
</svg>
