<svg width="16" height="16" viewBox="0 0 16 16" fill="none" xmlns="http://www.w3.org/2000/svg">
<g id="Icon - Menu">
<path id="Vector" d="M14.875 4.5H1.125C0.85 4.5 0.625 4.275 0.625 4C0.625 3.725 0.85 3.5 1.125 3.5H14.875C15.15 3.5 15.375 3.725 15.375 4C15.375 4.275 15.15 4.5 14.875 4.5Z" fill="#08080A"/>
<path id="Vector_2" d="M14.875 8.5H1.125C0.85 8.5 0.625 8.275 0.625 8C0.625 7.725 0.85 7.5 1.125 7.5H14.875C15.15 7.5 15.375 7.725 15.375 8C15.375 8.275 15.15 8.5 14.875 8.5Z" fill="#08080A"/>
<path id="Vector_3" d="M14.875 12.5H1.125C0.85 12.5 0.625 12.275 0.625 12C0.625 11.725 0.85 11.5 1.125 11.5H14.875C15.15 11.5 15.375 11.725 15.375 12C15.375 12.275 15.15 12.5 14.875 12.5Z" fill="#08080A"/>
</g>
</svg>
