<svg width="24" height="24" viewBox="0 0 24 24" fill="none" xmlns="http://www.w3.org/2000/svg">
<g id="Icon - Ig">
<path id="Union" fill-rule="evenodd" clip-rule="evenodd" d="M19.4943 4.51694C19.9477 4.97017 20.3015 5.51306 20.533 6.11088C20.7999 6.82013 20.9423 7.57015 20.954 8.32788C21.01 9.28488 21.01 9.59488 21.01 12.0379C21.01 14.4809 20.997 14.7859 20.954 15.7479C20.939 16.4959 20.798 17.2339 20.535 17.9339C20.3031 18.5316 19.9493 19.0745 19.4959 19.5279C19.0426 19.9812 18.4997 20.3351 17.902 20.5669C17.2022 20.829 16.4631 20.9707 15.716 20.9859C14.761 21.0409 14.448 21.0409 12.006 21.0409C9.56395 21.0409 9.25895 21.0279 8.29595 20.9859C7.54733 20.9613 6.80839 20.8091 6.11095 20.5359C5.51302 20.3045 4.96993 19.9509 4.51639 19.4977C4.06285 19.0445 3.70883 18.5016 3.47695 17.9039C3.21395 17.2029 3.07295 16.4649 3.05795 15.7169C3.00195 14.7599 3.00195 14.4489 3.00195 12.0069C3.00195 9.56388 3.01495 9.25888 3.05795 8.29688C3.07257 7.54972 3.21426 6.81049 3.47695 6.11088C3.70818 5.51291 4.06186 4.96987 4.51529 4.51661C4.96872 4.06335 5.51189 3.70988 6.10995 3.47888C6.80871 3.21548 7.54734 3.07344 8.29395 3.05888C9.24895 3.00488 9.56195 3.00488 12.004 3.00488C14.446 3.00488 14.751 3.01688 15.714 3.05888C16.4611 3.07422 17.2003 3.21624 17.9 3.47888C18.4979 3.71015 19.0409 4.06372 19.4943 4.51694ZM19.004 17.3309C19.2033 16.7901 19.3085 16.2192 19.315 15.6429V15.6439H19.326C19.369 14.6879 19.369 14.4259 19.369 11.9899C19.369 9.55288 19.358 9.28588 19.315 8.33488C19.3056 7.76504 19.2005 7.20083 19.004 6.66588C18.8537 6.27695 18.6238 5.92374 18.3289 5.62891C18.0341 5.33408 17.6809 5.10416 17.292 4.95388C16.7573 4.75495 16.1924 4.64974 15.622 4.64288C14.655 4.58788 14.405 4.58788 11.968 4.58788C9.53096 4.58788 9.26395 4.59988 8.31295 4.64288C7.74298 4.65085 7.17854 4.75602 6.64395 4.95388C5.85495 5.25588 5.22995 5.87688 4.92495 6.66588C4.72561 7.2063 4.62042 7.7769 4.61395 8.35288C4.56095 9.32188 4.56095 9.57088 4.56095 12.0079C4.56095 14.4439 4.57095 14.7119 4.61395 15.6619C4.62326 16.2317 4.7284 16.7959 4.92495 17.3309C5.07579 17.7205 5.30673 18.0741 5.60284 18.3688C5.89896 18.6636 6.25364 18.8929 6.64395 19.0419C7.17828 19.2407 7.74288 19.3459 8.31295 19.3529C9.28095 19.4079 9.52996 19.4079 11.968 19.4079C14.404 19.4079 14.672 19.3969 15.622 19.3529C16.1923 19.3455 16.7572 19.2403 17.292 19.0419C17.6809 18.8919 18.0342 18.6622 18.329 18.3676C18.6239 18.0729 18.8538 17.7197 19.004 17.3309ZM16.8065 8.2849C17.4019 8.2849 17.8845 7.80227 17.8845 7.20691C17.8845 6.61154 17.4019 6.12891 16.8065 6.12891C16.2112 6.12891 15.7285 6.61154 15.7285 7.20691C15.7285 7.80227 16.2112 8.2849 16.8065 8.2849ZM11.999 7.37695C10.7726 7.37695 9.59651 7.86412 8.72934 8.73129C7.86217 9.59846 7.375 10.7746 7.375 12.001C7.375 13.2273 7.86217 14.4034 8.72934 15.2706C9.59651 16.1378 10.7726 16.625 11.999 16.625C13.2254 16.625 14.4015 16.1378 15.2687 15.2706C16.1358 14.4034 16.623 13.2273 16.623 12.001C16.623 10.7746 16.1358 9.59846 15.2687 8.73129C14.4015 7.86412 13.2254 7.37695 11.999 7.37695ZM11.999 15.004C11.2023 15.004 10.4382 14.6875 9.87485 14.1241C9.31149 13.5607 8.995 12.7967 8.995 12C8.995 11.2032 9.31149 10.4392 9.87485 9.87581C10.4382 9.31245 11.2023 8.99595 11.999 8.99595C12.7957 8.99595 13.5598 9.31245 14.1231 9.87581C14.6865 10.4392 15.003 11.2032 15.003 12C15.003 12.7967 14.6865 13.5607 14.1231 14.1241C13.5598 14.6875 12.7957 15.004 11.999 15.004Z" fill="#F5F5F5"/>
</g>
</svg>
