<svg width="32" height="32" viewBox="0 0 32 32" fill="none" xmlns="http://www.w3.org/2000/svg">
<g id="Work">
<g id="Iconly/Light-Outline/Work">
<g id="Work_2">
<path id="Combined-Shape" fill-rule="evenodd" clip-rule="evenodd" d="M28.3639 19.6469C28.9146 19.6883 29.3266 20.1696 29.2853 20.7203L29.0319 24.0656C28.8226 26.8256 26.4933 28.9869 23.7266 28.9869H8.25993C5.49326 28.9869 3.16393 26.8256 2.95459 24.0656L2.70126 20.7203C2.65993 20.1696 3.07326 19.6883 3.62393 19.6469C4.17726 19.6269 4.65459 20.0176 4.69726 20.5696L4.94926 23.9136C5.07993 25.6363 6.53326 26.9869 8.25993 26.9869H23.7266C25.4533 26.9869 26.9079 25.6363 27.0373 23.9136L27.2906 20.5696C27.3333 20.0176 27.8226 19.6256 28.3639 19.6469ZM17.7135 2.66681C19.7174 2.66681 21.3776 4.1685 21.6276 6.10551L24.2537 6.10668C27.0483 6.10668 29.3203 8.38534 29.3203 11.188V15.7733C29.3203 16.1293 29.131 16.4573 28.8257 16.636C25.5346 18.5633 21.3655 19.6875 16.993 19.8374L16.9935 22.2356C16.9935 22.7876 16.5455 23.2356 15.9935 23.2356C15.4415 23.2356 14.9935 22.7876 14.9935 22.2356L14.9927 19.8378C10.6246 19.6892 6.4552 18.5648 3.16166 16.636C2.85499 16.4573 2.66699 16.1293 2.66699 15.7733V11.1747C2.66699 8.38001 4.94566 6.10668 7.74699 6.10668L10.3594 6.10551C10.6094 4.1685 12.2696 2.66681 14.2735 2.66681H17.7135ZM24.2537 8.10668H7.74699C6.04833 8.10668 4.66699 9.48268 4.66699 11.1747V15.1907C7.83194 16.9104 11.822 17.8529 15.975 17.8547L15.9935 17.8529L16.0083 17.8535L16.6432 17.8469C20.5709 17.7533 24.3178 16.8214 27.3203 15.1907V11.188C27.3203 9.48801 25.9457 8.10668 24.2537 8.10668ZM17.7135 4.66681H14.2735C13.3757 4.66681 12.6179 5.27784 12.394 6.10585H19.5931C19.3692 5.27784 18.6113 4.66681 17.7135 4.66681Z" fill="white"/>
</g>
</g>
</g>
</svg>
